<svg width="211" height="57" viewBox="0 0 211 57" fill="none" xmlns="http://www.w3.org/2000/svg">
<path d="M64.665 31.8243H65.1048C65.201 31.8417 65.2998 31.8398 65.3954 31.8188C65.4909 31.7978 65.5814 31.7582 65.6615 31.702C65.7417 31.6459 65.8099 31.5745 65.8623 31.4919C65.9148 31.4093 65.9503 31.3172 65.967 31.2208L71.7523 15.3477H75.5202L81.2883 31.2208C81.3049 31.3172 81.3405 31.4093 81.3929 31.4919C81.4454 31.5745 81.5136 31.6459 81.5938 31.702C81.6739 31.7582 81.7643 31.7978 81.8599 31.8188C81.9555 31.8398 82.0542 31.8417 82.1505 31.8243H82.5902V34.8765H80.4347C79.918 34.9695 79.3855 34.8539 78.954 34.5549C78.5224 34.2558 78.227 33.7979 78.1326 33.2815L76.9169 29.8326H70.3211L69.1054 33.2815C69.0617 33.5361 68.968 33.7796 68.8297 33.9979C68.6914 34.2162 68.5112 34.4049 68.2996 34.5532C68.088 34.7015 67.8491 34.8064 67.5967 34.8619C67.3443 34.9174 67.0835 34.9224 66.8292 34.8765H64.665V31.8243ZM76.0978 26.9012L74.3734 22.0039C74.0199 20.9347 73.6061 19.0896 73.6061 19.0896H73.5457C73.5457 19.0896 73.1319 20.9347 72.7784 22.0039L71.1402 26.9012H76.0978Z" fill="#101010"/>
<path d="M84.5384 30.4186C85.6156 31.6175 87.1131 32.3555 88.7201 32.4792C89.7892 32.4792 90.617 32.0395 90.617 31.1083C90.617 29.1253 83.2193 29.1511 83.2193 24.616C83.2193 21.8138 85.7455 20.5205 88.6598 20.5205C90.5566 20.5205 93.5829 21.1499 93.5829 23.4348V24.8919H90.5307V24.2021C90.5307 23.5468 89.5392 23.2192 88.8063 23.2192C87.5648 23.2192 86.7112 23.6589 86.7112 24.478C86.7112 26.6766 94.1692 26.2024 94.1692 30.9187C94.1692 33.557 91.8327 35.2297 88.7805 35.2297C87.6857 35.2514 86.599 35.0396 85.5925 34.6085C84.586 34.1774 83.6829 33.5367 82.9434 32.7293L84.5384 30.4186Z" fill="#101010"/>
<path d="M96.7215 30.4186C97.7923 31.6116 99.2795 32.3491 100.877 32.4792C101.946 32.4792 102.774 32.0395 102.774 31.1083C102.774 29.1253 95.3765 29.1511 95.3765 24.616C95.3765 21.8138 97.9027 20.5205 100.817 20.5205C102.714 20.5205 105.74 21.1499 105.74 23.4348V24.8919H102.688V24.2021C102.688 23.5468 101.696 23.2192 100.964 23.2192C99.722 23.2192 98.8684 23.6589 98.8684 24.478C98.8684 26.6766 106.326 26.2024 106.326 30.9187C106.326 33.557 103.99 35.2297 100.938 35.2297C99.843 35.2514 98.7562 35.0396 97.7497 34.6085C96.7432 34.1774 95.8401 33.5367 95.1006 32.7293L96.7215 30.4186Z" fill="#101010"/>
<path d="M108.956 24.4266C108.968 24.3447 108.96 24.2612 108.934 24.1828C108.907 24.1043 108.863 24.033 108.805 23.9745C108.746 23.916 108.675 23.8719 108.597 23.8456C108.518 23.8193 108.435 23.8116 108.353 23.8231H107.249V20.8485H110.577C111.87 20.8485 112.422 21.4262 112.422 22.7195V31.3415C112.413 31.4234 112.422 31.5064 112.449 31.5844C112.476 31.6624 112.52 31.7333 112.577 31.792C112.635 31.8508 112.706 31.8958 112.783 31.9237C112.861 31.9517 112.944 31.9619 113.026 31.9537H114.129V34.8938H110.801C109.508 34.8938 108.956 34.342 108.956 33.0228V24.4266ZM109.12 15.3477H112.146V18.5723H109.12V15.3477Z" fill="#101010"/>
<path d="M116.441 30.4186C117.516 31.6156 119.01 32.3534 120.614 32.4792C121.692 32.4792 122.519 32.0395 122.519 31.1083C122.519 29.1253 115.122 29.1511 115.122 24.616C115.122 21.8138 117.648 20.5205 120.562 20.5205C122.459 20.5205 125.485 21.1499 125.485 23.4348V24.8919H122.433V24.2021C122.433 23.5468 121.442 23.2192 120.709 23.2192C119.467 23.2192 118.614 23.6589 118.614 24.478C118.614 26.6766 126.072 26.2024 126.072 30.9187C126.072 33.557 123.735 35.2297 120.674 35.2297C119.581 35.2507 118.496 35.0386 117.491 34.6075C116.486 34.1763 115.584 33.5361 114.846 32.7293L116.441 30.4186Z" fill="#101010"/>
<path d="M128.623 23.6242H126.804V20.8479H128.701V17.0283H132.149V20.8479H135.339V23.6242H132.149V29.3147C132.134 29.6719 132.196 30.0283 132.33 30.3597C132.465 30.691 132.669 30.9895 132.929 31.2348C133.189 31.4802 133.499 31.6667 133.837 31.7817C134.176 31.8967 134.535 31.9375 134.891 31.9013C135.103 31.9046 135.314 31.8843 135.521 31.8409V34.8931C135.167 34.953 134.81 34.9819 134.451 34.9794C132.494 34.9794 128.623 34.4017 128.623 29.6941V23.6242Z" fill="#101010"/>
<path d="M136.072 31.8243H136.512C136.608 31.8417 136.707 31.8398 136.803 31.8188C136.898 31.7978 136.989 31.7582 137.069 31.7021C137.149 31.646 137.217 31.5745 137.27 31.4919C137.322 31.4093 137.358 31.3172 137.374 31.2208L143.177 15.3477H146.945L152.721 31.2208C152.737 31.3177 152.772 31.4105 152.824 31.4937C152.876 31.5769 152.944 31.6488 153.025 31.7051C153.105 31.7614 153.196 31.8009 153.292 31.8214C153.388 31.8419 153.487 31.8429 153.584 31.8243H154.023V34.8765H151.876C150.497 34.8765 150.005 34.5144 149.566 33.2815L148.359 29.8326H141.754L140.547 33.2815C140.503 33.537 140.409 33.7813 140.271 34.0002C140.132 34.2192 139.951 34.4083 139.738 34.5567C139.526 34.7051 139.286 34.8098 139.032 34.8647C138.779 34.9196 138.517 34.9236 138.262 34.8765H136.09L136.072 31.8243ZM147.514 26.9012L145.789 22.0039C145.436 20.9347 145.022 19.0896 145.022 19.0896H144.97C144.97 19.0896 144.556 20.9347 144.194 22.0039L142.522 26.9012H147.514Z" fill="#101010"/>
<path d="M155.818 18.9689C155.829 18.887 155.821 18.8035 155.795 18.725C155.769 18.6466 155.725 18.5753 155.666 18.5168C155.608 18.4583 155.536 18.4141 155.458 18.3879C155.379 18.3616 155.296 18.3539 155.214 18.3654H154.11V15.3477H157.438C158.732 15.3477 159.309 15.9253 159.309 17.2186V31.3243C159.3 31.4062 159.309 31.4892 159.336 31.5672C159.363 31.6451 159.407 31.7161 159.465 31.7748C159.523 31.8335 159.593 31.8785 159.67 31.9065C159.748 31.9345 159.831 31.9447 159.913 31.9364H160.991V34.8765H157.688C156.369 34.8765 155.818 34.3247 155.818 33.0055V18.9689Z" fill="#101010"/>
<path d="M169.483 20.5205C173.794 20.5205 177.183 23.5727 177.183 27.8665C177.183 32.1602 173.777 35.2038 169.483 35.2038C165.19 35.2038 161.818 32.1775 161.818 27.8665C161.818 23.5555 165.224 20.5205 169.483 20.5205ZM169.483 32.2378C170.049 32.2396 170.609 32.1264 171.13 31.9049C171.651 31.6834 172.121 31.3583 172.512 30.9494C172.903 30.5406 173.207 30.0564 173.405 29.5264C173.604 28.9964 173.692 28.4317 173.665 27.8665C173.702 27.297 173.621 26.7262 173.428 26.1891C173.236 25.652 172.935 25.1602 172.545 24.7439C172.154 24.3277 171.683 23.9959 171.159 23.7691C170.636 23.5423 170.071 23.4253 169.501 23.4253C168.93 23.4253 168.365 23.5423 167.842 23.7691C167.318 23.9959 166.847 24.3277 166.456 24.7439C166.066 25.1602 165.765 25.652 165.573 26.1891C165.38 26.7262 165.299 27.297 165.336 27.8665C165.308 28.4291 165.395 28.9915 165.59 29.5197C165.786 30.0479 166.087 30.531 166.474 30.9396C166.862 31.3483 167.329 31.674 167.846 31.8972C168.363 32.1203 168.92 32.2362 169.483 32.2378Z" fill="#101010"/>
<path d="M179.665 24.4265C179.675 24.3441 179.666 24.2605 179.639 24.1821C179.611 24.1037 179.566 24.0327 179.507 23.9744C179.448 23.9161 179.376 23.8722 179.298 23.8459C179.219 23.8197 179.135 23.8118 179.053 23.8229H177.958V20.8483H181.174C182.416 20.8483 183.019 21.426 183.019 22.4176V22.8314C183.016 23.0339 182.996 23.2359 182.959 23.435H183.019C183.485 22.5333 184.195 21.7815 185.069 21.2659C185.943 20.7503 186.945 20.492 187.96 20.5207C191.063 20.5207 192.848 22.1416 192.848 25.8577V31.3241C192.84 31.4065 192.851 31.4896 192.878 31.5675C192.906 31.6455 192.951 31.7162 193.01 31.7748C193.068 31.8333 193.139 31.8781 193.217 31.906C193.295 31.934 193.378 31.9443 193.46 31.9363H194.555V34.8764H191.236C189.917 34.8764 189.365 34.3246 189.365 33.0054V26.5734C189.365 24.849 188.925 23.7109 187.166 23.7109C186.309 23.6997 185.473 23.9753 184.79 24.494C184.107 25.0126 183.618 25.7445 183.399 26.5734C183.209 27.1786 183.116 27.8101 183.123 28.4443V34.8764H179.674L179.665 24.4265Z" fill="#101010"/>
<path d="M201.471 20.5203C204.713 20.5203 205.782 22.5034 205.782 22.5034H205.834V22.1413C205.834 21.5119 206.273 20.848 207.377 20.848H210.619V23.8226H209.55C209.472 23.8111 209.392 23.8169 209.317 23.8397C209.242 23.8625 209.172 23.9016 209.114 23.9543C209.055 24.0071 209.009 24.072 208.979 24.1447C208.948 24.2173 208.934 24.2957 208.938 24.3744V34.0224C208.938 38.8335 205.204 40.6528 201.54 40.6528C199.816 40.6361 198.119 40.22 196.582 39.437L197.66 36.6866C198.864 37.2862 200.187 37.6074 201.531 37.6264C203.652 37.6264 205.497 36.7642 205.497 34.1776V33.5223C205.497 33.1861 205.497 32.7722 205.497 32.7722H205.437C205.003 33.3914 204.413 33.8855 203.728 34.2048C203.042 34.5241 202.285 34.6575 201.531 34.5915C197.522 34.5915 195.237 31.3496 195.237 27.4956C195.237 23.6415 197.41 20.5117 201.454 20.5117L201.471 20.5203ZM205.549 27.5214C205.549 24.3313 203.954 23.4777 202.1 23.4777C199.979 23.4777 198.824 25.021 198.824 27.3835C198.824 29.7459 200.066 31.6514 202.325 31.6514C203.997 31.6514 205.592 30.6857 205.592 27.5214" fill="#101010"/>
<path d="M28.0043 56.0086C43.4707 56.0086 56.0086 43.4707 56.0086 28.0043C56.0086 12.538 43.4707 0 28.0043 0C12.538 0 0 12.538 0 28.0043C0 43.4707 12.538 56.0086 28.0043 56.0086Z" fill="#101010"/>
<path d="M27.9961 28.0216L28.0047 27.9785L27.9961 28.0216Z" fill="white"/>
<path d="M27.3838 29.6772L28.6167 26.3232L27.3838 29.6772Z" fill="white"/>
<path d="M46.1193 28.763H24.478L27.5906 20.141L30.3841 27.4524H33.7812L29.315 15.2695H26.4956L22.0725 27.2369L21.5552 28.6768V28.7199L20.2964 32.0738L19.1669 35.1174C18.6136 33.9889 17.8764 32.9604 16.9855 32.0738H18.9686L20.2015 28.7199H9.8551C9.81199 28.9958 9.8551 30.9271 9.8551 31.7117C10.2151 31.7987 10.5693 31.9081 10.9156 32.0394C12.5064 32.6222 13.9468 33.5534 15.1313 34.7647C16.3158 35.9761 17.2145 37.4369 17.7615 39.0404C17.9445 39.5813 18.0886 40.1345 18.1926 40.6959H20.167L20.3136 40.3079L23.2796 32.0738H32.1516L35.4625 40.6959H37.8508C37.9335 40.2386 38.0429 39.7866 38.1784 39.3422C38.6916 37.6777 39.5805 36.1535 40.7765 34.8872C41.9725 33.621 43.4435 32.6466 45.076 32.0394C45.4468 31.91 45.8175 31.7893 46.1969 31.6945L46.1193 28.763ZM36.7213 35.4106L35.4884 32.0738H39.0148C38.0541 33.0376 37.2769 34.1683 36.7213 35.4106Z" fill="white"/>
<path d="M28.2632 27.2803L27.7373 28.7202L28.2632 27.2803Z" fill="white"/>
</svg>
