<svg xmlns="http://www.w3.org/2000/svg" width="145" height="48" viewBox="0 0 145 48" fill="none"><g clip-path="url(#clip0_187_1161)"><path d="M19.1469 35.1963C18.3625 35.1963 17.6307 35.033 16.9544 34.7063C16.2766 34.3797 15.7285 33.9133 15.31 33.3055C14.8916 32.6978 14.6816 31.977 14.6816 31.1431C14.6816 30.1458 14.9225 29.3292 15.4042 28.6948C15.886 28.0603 16.5499 27.5892 17.396 27.2798C18.2421 26.972 19.1916 26.8181 20.2447 26.8181H23.4006C23.4006 26.2025 23.3064 25.6858 23.1196 25.2681C22.9328 24.8519 22.6564 24.53 22.2904 24.3023C21.9245 24.0761 21.4752 23.9615 20.9395 23.9615C20.3157 23.9615 19.7583 24.1028 19.2673 24.384C18.7763 24.6651 18.4783 25.1315 18.3718 25.7848H14.9488C15.0383 24.8048 15.3672 23.9615 15.9385 23.2548C16.5097 22.5481 17.24 22.0032 18.1325 21.6231C19.0234 21.2431 19.9775 21.0515 20.9935 21.0515C22.241 21.0515 23.2971 21.2871 24.1633 21.7582C25.028 22.2293 25.6919 22.8968 26.1551 23.7574C26.6183 24.6195 26.8499 25.6387 26.8499 26.8181V30.9263C26.8854 31.3252 27.0274 31.5969 27.2776 31.743C27.5277 31.889 27.8566 31.9612 28.2673 31.9612V34.8712C27.4289 34.8712 26.7294 34.7896 26.1674 34.6263C25.6054 34.4629 25.1468 34.2227 24.7902 33.9054C24.4335 33.5882 24.1309 33.1846 23.8808 32.6946C23.4701 33.4013 22.8324 33.9965 21.9693 34.4771C21.1047 34.9576 20.1644 35.1979 19.1469 35.1979V35.1963ZM20.1366 32.3947C20.7248 32.3947 21.2637 32.2581 21.7547 31.9864C22.2441 31.7147 22.6409 31.3331 22.9451 30.8431C23.2477 30.3531 23.399 29.7909 23.399 29.1565V29.0481H20.4577C20.0656 29.0481 19.6904 29.1078 19.3337 29.2256C18.977 29.3434 18.6914 29.5239 18.4783 29.7689C18.2653 30.0139 18.1572 30.3453 18.1572 30.7614C18.1572 31.3237 18.3486 31.7367 18.7315 31.9989C19.1145 32.2628 19.5823 32.3931 20.135 32.3931L20.1366 32.3947Z" fill="#05181A"></path><path d="M34.5792 35.1963C33.4382 35.1963 32.467 34.9466 31.6641 34.4488C30.8613 33.951 30.2467 33.2616 29.8191 32.3821C29.3914 31.5027 29.1768 30.5008 29.1768 29.3763V21.3782H32.5735V28.8597C32.5735 29.8569 32.8283 30.6735 33.3363 31.308C33.8443 31.9424 34.5885 32.2596 35.5689 32.2596C36.5493 32.2596 37.3429 31.9518 37.8432 31.3347C38.3419 30.7191 38.592 29.893 38.592 28.8597V21.3782H42.0151V34.8713H38.592V33.2945C38.1458 33.9117 37.5622 34.3829 36.8396 34.7079C36.117 35.0346 35.3635 35.1979 34.5792 35.1979V35.1963Z" fill="#05181A"></path><path d="M49.7442 41.1813C48.5306 41.1813 47.4436 41.0463 46.4817 40.773C45.5183 40.5013 44.7571 40.06 44.1951 39.4538C43.6331 38.8461 43.3521 38.053 43.3521 37.0731C43.3521 36.4386 43.4864 35.8906 43.7535 35.4273C44.0206 34.964 44.4313 34.5604 44.9841 34.2165C44.5209 33.9448 44.1719 33.5993 43.9403 33.1831C43.7087 32.7654 43.5929 32.2849 43.5929 31.7415C43.5929 30.5448 44.1457 29.6199 45.2512 28.9666C44.859 28.5488 44.5564 28.073 44.3418 27.5375C44.1287 27.0035 44.0206 26.446 44.0206 25.865C44.0206 24.885 44.2522 24.0386 44.7154 23.3209C45.1786 22.6048 45.8209 22.0473 46.6408 21.6484C47.4606 21.2495 48.3963 21.05 49.4493 21.05C50.2151 21.05 50.9207 21.1584 51.563 21.3767H56.3232V23.9883H54.4781C54.5846 24.2961 54.6788 24.6055 54.7591 24.9133C54.8394 25.2211 54.8795 25.5383 54.8795 25.865C54.8795 26.8072 54.6387 27.6427 54.1569 28.3667C53.6752 29.0922 53.0298 29.6591 52.2177 30.0674C51.4055 30.4757 50.4838 30.6799 49.4493 30.6799C49.0031 30.6799 48.5939 30.6391 48.2187 30.5574C47.8435 30.4757 47.4792 30.3438 47.1225 30.1632C46.7303 30.3627 46.5342 30.6799 46.5342 31.1149C46.5342 31.9142 47.1842 32.3116 48.4874 32.3116H50.9207C51.9907 32.3116 52.9032 32.4623 53.6629 32.7607C54.421 33.0591 54.9953 33.5271 55.3875 34.1615C55.7797 34.796 55.9758 35.6032 55.9758 36.5831C55.9758 37.5631 55.6994 38.342 55.1466 39.0314C54.5939 39.7208 53.845 40.2516 52.9001 40.6238C51.9552 40.9944 50.9022 41.1813 49.7442 41.1813ZM49.7442 38.4613C50.5996 38.4613 51.3268 38.3216 51.9243 38.0389C52.5218 37.7578 52.8198 37.3353 52.8198 36.7747C52.8198 35.7037 52.088 35.1697 50.6258 35.1697H48.7005C47.9871 35.1697 47.439 35.3064 47.0561 35.578C46.6732 35.8497 46.4817 36.2486 46.4817 36.7747C46.4817 37.1909 46.633 37.5222 46.9357 37.7672C47.2383 38.0122 47.6397 38.1881 48.14 38.2964C48.6387 38.4048 49.1745 38.4598 49.7442 38.4598V38.4613ZM49.423 27.9599C50.1009 27.9599 50.6567 27.7652 51.0952 27.3741C51.5321 26.9847 51.7514 26.4821 51.7514 25.865C51.7514 25.2478 51.5321 24.7672 51.0952 24.3684C50.6582 23.9695 50.1009 23.77 49.423 23.77C48.7452 23.77 48.1971 23.9695 47.7787 24.3684C47.3603 24.7672 47.1503 25.2666 47.1503 25.865C47.1503 26.4633 47.351 26.9847 47.7524 27.3741C48.1539 27.7636 48.7113 27.9599 49.4246 27.9599H49.423Z" fill="#05181A"></path><path d="M57.4459 34.8698V21.3767H60.8427V22.9267C61.2889 22.2923 61.8586 21.8211 62.555 21.5118C63.2498 21.204 63.9801 21.05 64.7474 21.05C65.7464 21.05 66.6774 21.2636 67.5421 21.6892C68.4067 22.1148 69.0799 22.7822 69.5616 23.6884C70.0063 22.8545 70.627 22.2059 71.4206 21.7442C72.2142 21.2809 73.0835 21.05 74.0284 21.05C75.0443 21.05 75.9676 21.2636 76.7968 21.6892C77.6259 22.1148 78.2806 22.7634 78.7623 23.6334C79.244 24.5034 79.4849 25.5917 79.4849 26.8967V34.8666H76.0881V27.3851C76.0881 26.3691 75.8472 25.5634 75.3655 24.9635C74.8838 24.3652 74.1442 24.0653 73.1452 24.0653C72.1463 24.0653 71.4237 24.3652 70.925 24.9635C70.4247 25.5619 70.1761 26.3691 70.1761 27.3851V34.8666H66.7793V27.3851C66.7793 26.3518 66.5246 25.5399 66.0166 24.951C65.5086 24.3621 64.7814 24.0668 63.8365 24.0668C63.0336 24.0668 62.3342 24.326 61.7366 24.8426C61.1391 25.3593 60.8411 26.2073 60.8411 27.3867V34.8682H57.4443L57.4459 34.8698Z" fill="#05181A"></path><path d="M87.4812 35.1964C86.0901 35.1964 84.8904 34.8871 83.8837 34.2714C82.8755 33.6543 82.0957 32.811 81.543 31.7415C80.9902 30.672 80.7139 29.466 80.7139 28.1232C80.7139 26.691 80.9995 25.4488 81.5692 24.3966C82.1405 23.3444 82.9326 22.5247 83.9501 21.9342C84.966 21.3453 86.1426 21.05 87.4812 21.05C88.8198 21.05 89.9547 21.3406 90.9444 21.9201C91.9341 22.5011 92.7092 23.2989 93.2712 24.3134C93.8332 25.3295 94.1142 26.4994 94.1142 27.8233C94.1142 28.0589 94.1049 28.2897 94.0864 28.5158C94.0694 28.742 94.0416 28.9556 94.0061 29.155H84.1631C84.2172 29.7895 84.3824 30.3485 84.6588 30.8275C84.9351 31.3081 85.3088 31.6802 85.7828 31.9425C86.2553 32.2063 86.7941 32.3367 87.4009 32.3367C88.0077 32.3367 88.5635 32.2001 89.019 31.9284C89.4729 31.6567 89.8342 31.239 90.1014 30.6767H93.7653C93.5151 31.4745 93.1137 32.2173 92.5609 32.9067C92.0082 33.5962 91.3088 34.149 90.4611 34.5667C89.615 34.9844 88.6207 35.1917 87.4797 35.1917L87.4812 35.1964ZM84.1909 26.8449H90.5831C90.5646 25.9388 90.2388 25.2227 89.6073 24.6966C88.9742 24.1705 88.23 23.9082 87.3747 23.9082C86.6428 23.9082 85.9665 24.1391 85.3412 24.6023C84.7174 25.0641 84.3345 25.8131 84.1909 26.8465V26.8449Z" fill="#05181A"></path><path d="M95.397 34.8697V21.3766H98.7938V22.9549C99.257 22.3204 99.8777 21.8446 100.653 21.5274C101.428 21.2101 102.208 21.0515 102.993 21.0515C104.527 21.0515 105.783 21.5556 106.764 22.5607C107.744 23.5673 108.235 25.0231 108.235 26.9265V34.8697H104.839V27.3882C104.839 26.3721 104.584 25.5523 104.076 24.9257C103.568 24.2992 102.824 23.9866 101.842 23.9866C100.86 23.9866 100.108 24.2992 99.5827 24.9257C99.0562 25.5508 98.7938 26.3721 98.7938 27.3882V34.8697H95.397Z" fill="#05181A"></path><path d="M115.109 34.8698C113.683 34.8698 112.608 34.5164 111.887 33.8098C111.164 33.1015 110.803 32.0415 110.803 30.6265V24.2883H109.091V21.3783H110.803V18.0867H114.226V21.3783H117.248V24.2883H114.226V30.6532C114.226 31.162 114.359 31.5059 114.628 31.6865C114.895 31.8687 115.242 31.9582 115.671 31.9582H117.249V34.8682H115.109V34.8698Z" fill="#05181A"></path><path d="M122.812 35.1963C122.028 35.1963 121.296 35.033 120.62 34.7063C119.942 34.3797 119.394 33.9133 118.976 33.3055C118.557 32.6978 118.347 31.977 118.347 31.1431C118.347 30.1458 118.588 29.3292 119.07 28.6948C119.551 28.0603 120.215 27.5892 121.062 27.2798C121.908 26.972 122.859 26.8181 123.91 26.8181H127.066C127.066 26.2025 126.972 25.6858 126.785 25.2681C126.598 24.8519 126.322 24.53 125.956 24.3023C125.59 24.0761 125.141 23.9615 124.605 23.9615C123.981 23.9615 123.424 24.1028 122.933 24.384C122.442 24.6651 122.144 25.1315 122.037 25.7848H118.614C118.704 24.8048 119.033 23.9615 119.604 23.2548C120.174 22.5481 120.906 22.0032 121.796 21.6231C122.687 21.2431 123.642 21.0515 124.657 21.0515C125.905 21.0515 126.961 21.2871 127.827 21.7582C128.692 22.2293 129.356 22.8968 129.819 23.7574C130.282 24.6195 130.514 25.6387 130.514 26.8181V30.9263C130.549 31.3252 130.691 31.5969 130.942 31.743C131.192 31.889 131.521 31.9612 131.931 31.9612V34.8712C131.093 34.8712 130.393 34.7896 129.831 34.6263C129.269 34.4629 128.811 34.2227 128.454 33.9054C128.098 33.5882 127.793 33.1846 127.545 32.6946C127.134 33.4013 126.498 33.9965 125.633 34.4771C124.769 34.9576 123.828 35.1979 122.811 35.1979L122.812 35.1963ZM123.802 32.3947C124.39 32.3947 124.929 32.2581 125.42 31.9864C125.91 31.7147 126.306 31.3331 126.611 30.8431C126.913 30.3531 127.065 29.7909 127.065 29.1565V29.0481H124.122C123.73 29.0481 123.354 29.1078 122.998 29.2256C122.641 29.3434 122.355 29.5239 122.142 29.7689C121.928 30.0139 121.821 30.3453 121.821 30.7614C121.821 31.3237 122.013 31.7367 122.397 31.9989C122.78 32.2628 123.248 32.3931 123.802 32.3931V32.3947Z" fill="#05181A"></path><path d="M133.055 34.8698V15.8284H136.48V34.8698H133.055Z" fill="#05181A"></path><path d="M10.1751 26.0738C9.88949 26.0738 9.60848 25.967 9.39078 25.7613L0.370761 17.2747C0.0604182 16.9826 -0.0677334 16.5413 0.0357143 16.1252L2.65433 5.60176C2.73925 5.26097 2.96931 4.97673 3.28274 4.82754L13.1674 0.111555C13.4746 -0.0360647 13.8298 -0.0360647 14.1386 0.106844L24.1931 4.79613C24.525 4.9516 24.7659 5.25626 24.8415 5.61903L27.1066 16.4675C27.1791 16.8162 27.0927 17.1789 26.8719 17.4537C26.6496 17.7286 26.3068 17.8652 25.9687 17.884L18.3537 17.8165C16.47 17.7788 14.7191 18.5295 13.3897 19.8691C12.0603 21.2086 11.3285 22.9958 11.3285 24.8991C11.3285 25.3655 11.0568 25.788 10.6368 25.9749C10.4886 26.0408 10.3311 26.0738 10.1751 26.0738ZM2.44126 16.0247L9.32285 22.4995C9.73664 20.8867 10.5704 19.4089 11.7654 18.2028C13.5349 16.4188 15.9034 15.4357 18.3722 15.4703L24.5513 15.5237L22.7062 6.68221L13.6646 2.46562L4.75725 6.71519L2.44126 16.0231V16.0247Z" fill="#05181A"></path><path d="M4.31995 4.8885L3.32324 7.00439L25.4141 17.7697L26.4108 15.6538L4.31995 4.8885Z" fill="#05181A"></path><path d="M23.1785 4.85338L0.734375 15.3484L1.69792 17.4801L24.142 6.9851L23.1785 4.85338Z" fill="#05181A"></path><path d="M12.5025 1.15981L12.4097 10.6494L14.7178 10.6728L14.8106 1.18317L12.5025 1.15981Z" fill="#05181A"></path><path d="M142.332 34.8713C143.773 34.8713 144.941 33.683 144.941 32.2172C144.941 30.7515 143.773 29.5632 142.332 29.5632C140.89 29.5632 139.722 30.7515 139.722 32.2172C139.722 33.683 140.89 34.8713 142.332 34.8713Z" fill="#05181A"></path></g><defs><clipPath id="clip0_187_1161"><rect width="144.98" height="48" fill="white"></rect></clipPath></defs></svg>