<svg width="188" height="68" viewBox="0 0 188 68" fill="none" xmlns="http://www.w3.org/2000/svg">
<path fill-rule="evenodd" clip-rule="evenodd" d="M56.3776 28.0478C56.3776 43.582 43.6971 56.182 27.9845 56.3776V43.0239C27.9845 39.0541 26.3736 35.4525 23.7731 32.8519C23.4451 32.5297 23.1057 32.219 22.7489 31.9256C22.5533 31.7645 22.352 31.6092 22.1506 31.4596C22.0183 31.356 21.8802 31.2582 21.7421 31.1662C21.3739 30.9073 20.9884 30.6714 20.5914 30.4528C20.4476 30.3722 20.298 30.2917 20.1484 30.2169C19.901 30.0845 19.6536 29.9695 19.4005 29.8601C19.3775 29.8486 19.3544 29.8371 19.3257 29.8256C19.2106 29.7738 19.0898 29.7221 18.9632 29.676C18.9402 29.6645 18.9172 29.653 18.8884 29.6473C18.7446 29.5897 18.6007 29.5322 18.4512 29.4804C18.4109 29.4632 18.3764 29.4517 18.3361 29.4402C18.2153 29.3941 18.0944 29.3538 17.9794 29.3193C17.9046 29.2963 17.824 29.2733 17.7435 29.2503C17.6629 29.2215 17.5824 29.1985 17.5018 29.1812C17.3407 29.1352 17.1797 29.0949 17.0186 29.0547C16.8632 29.0086 16.7021 28.9741 16.541 28.9454C16.3857 28.9108 16.2361 28.8821 16.0808 28.8591C16.0692 28.8533 16.052 28.8476 16.0347 28.8476C15.9484 28.836 15.8564 28.8188 15.7701 28.8073C15.3443 28.7382 14.9186 28.6922 14.4813 28.6692C14.4065 28.6634 14.3317 28.6577 14.2627 28.6577C14.0441 28.6462 13.8254 28.6404 13.601 28.6404C13.0602 28.6404 12.5252 28.6692 12.0016 28.7267C11.8347 28.744 11.6679 28.767 11.501 28.79V28.7958C6.64518 29.5034 2.57752 32.6333 0.57534 36.9311C0.356711 36.2579 0.166849 35.5733 0 34.8771V27.7717C0 27.133 0.0460272 26.5059 0.120821 25.8903C1.21972 11.4378 13.2616 0.0460272 27.9845 0V13.5665C27.9845 13.8542 27.9903 14.1361 28.0076 14.418C28.0191 14.5619 28.0306 14.7114 28.0478 14.8553C28.0651 15.1257 28.0939 15.3903 28.1399 15.655C28.1514 15.7298 28.1571 15.7988 28.1744 15.8736C28.1917 16.0405 28.2262 16.2073 28.2607 16.3742C28.2722 16.4317 28.2837 16.4892 28.301 16.5525C28.3355 16.7597 28.3873 16.961 28.4391 17.1624C28.5541 17.6169 28.698 18.0714 28.8591 18.5087C28.9223 18.6928 28.9914 18.8712 29.0662 19.0495C29.0719 19.061 29.0777 19.0668 29.0777 19.0783C29.141 19.2279 29.21 19.3832 29.2791 19.527C29.3826 19.7629 29.4919 19.9931 29.6185 20.2175C29.676 20.3383 29.7393 20.4533 29.8084 20.5684C29.9292 20.7928 30.0615 21.0114 30.1996 21.23C30.3319 21.4429 30.47 21.65 30.6138 21.8514C30.6196 21.8629 30.6254 21.8802 30.6426 21.8917C30.7634 22.07 30.8958 22.2426 31.0281 22.4095C31.0626 22.4555 31.0971 22.5016 31.1374 22.5476C31.2812 22.7317 31.4308 22.9043 31.5804 23.0769C31.661 23.1747 31.7473 23.2668 31.8336 23.3588C31.8796 23.4048 31.9199 23.4509 31.9716 23.5026C32.0867 23.6235 32.2018 23.7443 32.3226 23.8594C32.3571 23.8939 32.3974 23.9341 32.4377 23.9687C32.547 24.0722 32.6506 24.1758 32.7656 24.2736C33.059 24.5383 33.364 24.7914 33.6804 25.0273C33.7552 25.0906 33.8358 25.1481 33.9163 25.1999C34.0371 25.292 34.1579 25.3783 34.2788 25.4588C34.4226 25.5566 34.5664 25.6544 34.716 25.7407C34.8138 25.8098 34.9174 25.873 35.0152 25.9306C35.136 26.0054 35.2626 26.0744 35.3834 26.1377C35.51 26.2067 35.6366 26.2758 35.7631 26.3391C35.9012 26.4196 36.0393 26.4887 36.1774 26.5519C36.2982 26.6095 36.4248 26.667 36.5514 26.7245C36.6434 26.7648 36.7297 26.7993 36.8218 26.8396C36.9886 26.9087 37.1555 26.9777 37.3223 27.0352C37.4144 27.0697 37.5064 27.1043 37.5927 27.133C37.6905 27.1733 37.7883 27.2078 37.8919 27.2366C38.0357 27.2826 38.1853 27.3287 38.3292 27.3747C38.4097 27.3977 38.5018 27.4265 38.5881 27.4437C38.7089 27.4782 38.8297 27.507 38.9505 27.5358C38.9908 27.553 39.0253 27.5588 39.0656 27.5645C39.0886 27.5761 39.1174 27.5818 39.1404 27.5818C39.29 27.6163 39.4396 27.6508 39.5949 27.6796C39.802 27.7256 40.0092 27.7602 40.2163 27.7889C40.4119 27.8177 40.6075 27.8407 40.8031 27.8637H40.8089C40.947 27.881 41.0908 27.8925 41.2346 27.904C41.2461 27.9097 41.2634 27.9097 41.2749 27.904C41.4187 27.9213 41.5683 27.927 41.7122 27.9328C41.9308 27.9443 42.1494 27.95 42.368 27.95C42.9089 27.95 43.4497 27.9213 43.979 27.8637C44.1401 27.8407 44.3069 27.8234 44.4738 27.8004C49.1801 27.1043 53.1442 24.1355 55.2096 20.0448C55.9691 22.5821 56.3776 25.2689 56.3776 28.0478Z" fill="#C7BAF8"/>
<path fill-rule="evenodd" clip-rule="evenodd" d="M27.9846 13.5655V11.6904C18.8717 11.6904 11.4844 19.0778 11.4844 28.1906C11.4844 28.3925 11.4924 28.5922 11.4993 28.7924C12.1857 28.6923 12.8871 28.6394 13.6011 28.6394C17.5767 28.6394 21.1668 30.2503 23.7731 32.8509C26.3736 35.4514 27.9846 39.053 27.9846 43.0229V44.6908C37.0974 44.6908 44.4847 37.3034 44.4847 28.1906C44.4847 28.0577 44.4778 27.9265 44.4749 27.7948C43.7874 27.8955 43.0838 27.949 42.368 27.949C34.4226 27.949 27.9846 21.5052 27.9846 13.5655Z" fill="#B8A9F5"/>
<path fill-rule="evenodd" clip-rule="evenodd" d="M56.3794 28.0476C56.3794 43.5818 43.6989 56.1817 27.9863 56.3773V55.7329C33.0033 53.0749 39.0674 48.2708 39.0674 41.499V2.05371C46.823 5.36767 52.8007 11.9553 55.2114 20.0446C55.9709 22.5818 56.3794 25.2687 56.3794 28.0476Z" fill="#AD83E6"/>
<path fill-rule="evenodd" clip-rule="evenodd" d="M27.9845 0V0.494793C23.1747 3.03204 17.2314 7.65202 16.9208 14.1879L16.9323 15.9427L17.0186 29.0547L17.1681 50.9866C17.1681 60.3187 9.59667 67.8901 0.258903 67.8901H0V27.7717C0 27.133 0.0460272 26.5059 0.120821 25.8903C1.21972 11.4378 13.2616 0.0460272 27.9845 0Z" fill="#AD83E6"/>
<path fill-rule="evenodd" clip-rule="evenodd" d="M74.2202 26.2617H69.9922V36.3962H72.1132V33.2498H74.1148C75.187 33.2498 76.0579 32.9291 76.7274 32.2876C77.397 31.6462 77.7317 30.8057 77.7317 29.7663C77.7317 28.7175 77.4075 27.8712 76.759 27.2274C76.1106 26.5836 75.2643 26.2617 74.2202 26.2617ZM72.1135 31.5283V28.0027H73.6586C74.272 28.0027 74.7449 28.1548 75.0773 28.4592C75.4097 28.7635 75.5759 29.2013 75.5759 29.7725C75.5759 30.339 75.4085 30.7733 75.0738 31.0753C74.739 31.3773 74.2649 31.5283 73.6516 31.5283H72.1135Z" fill="#313131"/>
<path fill-rule="evenodd" clip-rule="evenodd" d="M88.3199 33.9802L89.0855 36.3962H91.382L87.8634 26.2617H85.3702L81.8516 36.3962H83.9796L84.7592 33.9802H88.3199ZM85.216 32.3447L86.4872 28.3696H86.6136L87.8708 32.3447H85.216Z" fill="#313131"/>
<path d="M98.6034 26.2617V32.6809C98.6034 33.3271 98.7895 33.8374 99.1618 34.212C99.534 34.5865 100.055 34.7738 100.724 34.7738C101.399 34.7738 101.922 34.5865 102.294 34.212C102.666 33.8374 102.852 33.3271 102.852 32.6809V26.2617H104.973V32.8986C104.973 34.027 104.588 34.9354 103.818 35.6236C103.048 36.3119 102.017 36.656 100.724 36.656C99.4368 36.656 98.4079 36.3119 97.6377 35.6236C96.8675 34.9354 96.4824 34.027 96.4824 32.8986V26.2617H98.6034Z" fill="#313131"/>
<path d="M110.586 33.58H112.637C112.684 33.992 112.899 34.3198 113.283 34.5632C113.667 34.8067 114.158 34.9284 114.758 34.9284C115.31 34.9284 115.762 34.8079 116.113 34.5667C116.464 34.3256 116.64 34.0131 116.64 33.6291C116.64 33.3061 116.504 33.0439 116.233 32.8425C115.961 32.6412 115.514 32.475 114.891 32.3439L113.571 32.063C111.735 31.679 110.818 30.7145 110.818 29.1694C110.818 28.2143 111.171 27.4476 111.878 26.8693C112.585 26.2911 113.524 26.002 114.695 26.002C115.809 26.002 116.725 26.2852 117.444 26.8518C118.163 27.4183 118.539 28.1534 118.571 29.057H116.577C116.525 28.6544 116.329 28.3313 115.987 28.0878C115.645 27.8444 115.219 27.7226 114.709 27.7226C114.175 27.7226 113.748 27.8373 113.427 28.0668C113.106 28.2962 112.946 28.6029 112.946 28.9868C112.946 29.3005 113.076 29.5533 113.336 29.7453C113.595 29.9373 114.023 30.0965 114.617 30.2229L115.839 30.4828C116.855 30.6981 117.595 31.0352 118.059 31.4941C118.522 31.9529 118.754 32.5757 118.754 33.3623C118.754 34.383 118.388 35.1871 117.655 35.7747C116.922 36.3623 115.919 36.6561 114.645 36.6561C113.437 36.6561 112.468 36.3799 111.738 35.8274C111.007 35.2749 110.623 34.5258 110.586 33.58Z" fill="#313131"/>
<path d="M131.064 34.5842V36.3962H124.35V26.2617H131.064V28.0737H126.471V30.4405H130.804V32.1191H126.471V34.5842H131.064Z" fill="#313131"/>
<path d="M139.016 36.3962H136.895V26.2617H139.016V36.3962Z" fill="#313131"/>
<path d="M149.648 36.3962H147.527V28.0737H144.486V26.2617H152.689V28.0737H149.648V36.3962Z" fill="#313131"/>
<path d="M160.281 36.3962H158.16V26.2617H160.281V36.3962Z" fill="#313131"/>
<path d="M171.602 36.3962H169.039L165.611 26.2617H168.006L170.31 34.0083H170.436L172.698 26.2617H174.98L171.602 36.3962Z" fill="#313131"/>
<path d="M187.021 34.5842V36.3962H180.307V26.2617H187.021V28.0737H182.428V30.4405H186.761V32.1191H182.428V34.5842H187.021Z" fill="#313131"/>
</svg>
